<?xml version="1.0" encoding="UTF-8"?>
<svg width="400px" height="106px" viewBox="0 0 400 106" version="1.1" xmlns="http://www.w3.org/2000/svg" xmlns:xlink="http://www.w3.org/1999/xlink">
    <title>画板</title>
    <g id="画板" stroke="none" stroke-width="1" fill="none" fill-rule="evenodd">
        <g id="logo-light-v2" transform="translate(5.000000, 9.000000)" fill="#FFFFFF" fill-rule="nonzero">
            <g id="编组" transform="translate(103.600000, 23.739663)">
                <path d="M172.45,0.39 L166.64,0.39 C162.64,5.93 156.36,10.42 147.8,13.85 L147.8,18.62 C157.21,15.91 164.47,11.79 169.57,6.25 C174.61,11.79 181.85,15.92 191.29,18.62 L191.29,13.85 C182.73,10.42 176.45,5.93 172.45,0.39 Z" id="路径"></path>
                <polygon id="路径" points="172.74 30.71 185.58 30.71 185.58 26.55 172.74 26.55 172.74 20.37 182.61 20.37 182.61 16.21 156.59 16.21 156.59 20.37 166.31 20.37 166.31 26.55 153.61 26.55 153.61 30.71 166.31 30.71 166.31 38.78 149.55 38.78 149.55 42.88 189.55 42.88 189.55 38.78 172.74 38.78"></polygon>
                <path d="M219.91,0.01 L213.68,0.01 L213.68,7.47 L197.58,7.47 L197.58,30.61 L213.68,30.61 L213.68,43.27 L219.91,43.27 L219.91,30.61 L235.97,30.61 L235.97,7.47 L219.91,7.47 L219.91,0.01 Z M213.68,26.55 L203.34,26.55 L203.34,11.53 L213.68,11.53 L213.68,26.55 L213.68,26.55 Z M230.21,11.53 L230.21,26.55 L219.92,26.55 L219.92,11.53 L230.21,11.53 Z" id="形状"></path>
                <polygon id="路径" points="272.97 38.29 259.97 38.29 259.97 3.25 253.73 3.25 253.73 42.88 277.88 42.88 277.88 33.4 272.97 33.4"></polygon>
                <path d="M273.07,21.54 C272.21,14.71 271.18,7.53 269.97,0 L264.59,0 C265.64,6.92 266.48,14.1 267.12,21.54 L273.08,21.54 L273.07,21.54 Z" id="路径"></path>
                <path d="M282.07,9.01 L276.78,9.01 C278.05,16.79 279.19,25.54 280.21,35.26 L286.02,35.26 C284.75,25.25 283.43,16.5 282.07,9.01 Z" id="路径"></path>
                <path d="M242.58,35.27 L248.39,35.27 C249.31,28.25 250.06,19.56 250.63,9.21 L245.39,9.21 C244.69,19.06 243.75,27.74 242.58,35.27 L242.58,35.27 Z" id="路径"></path>
                <path d="M36.25,36.6 C37.99,34.84 39.45,32.74 40.48,30.51 C41.76,27.74 42.44,24.68 42.44,21.67 C42.44,9.97 32.92,0.45 21.22,0.45 C20.49,0.45 19.76,0.49 19.05,0.56 C17.65,0.7 16.26,0.99 14.91,1.41 C13.6,1.82 12.32,2.36 11.11,3.02 C9.92,3.67 8.78,4.44 7.73,5.31 C7.21,5.74 6.71,6.2 6.22,6.68 C5.74,7.16 5.28,7.66 4.85,8.19 C3.98,9.24 3.21,10.38 2.57,11.57 C2.24,12.17 1.94,12.79 1.67,13.42 C0.56,16.04 -1.42108547e-14,18.81 -1.42108547e-14,21.67 C-1.42108547e-14,22.4 0.04,23.13 0.11,23.84 C0.25,25.24 0.54,26.63 0.96,27.98 C1.37,29.29 1.91,30.57 2.57,31.78 C3.22,32.97 3.99,34.11 4.86,35.16 C5.72,36.21 6.69,37.18 7.74,38.04 C8.79,38.91 9.93,39.68 11.12,40.33 C12.33,40.99 13.61,41.53 14.92,41.94 C16.26,42.36 17.66,42.64 19.06,42.79 C19.77,42.86 20.5,42.9 21.23,42.9 L44.33,42.9 L44.33,36.62 L36.26,36.62 L36.25,36.6 Z M31.76,32.24 C31.76,32.24 31.71,32.29 31.68,32.31 C31.14,32.84 30.52,33.35 29.86,33.83 C29.61,34.01 29.35,34.18 29.09,34.34 C28.28,34.84 27.42,35.27 26.53,35.61 C25.89,35.85 25.24,36.05 24.6,36.2 C23.46,36.46 22.32,36.6 21.23,36.6 C13,36.6 6.3,29.9 6.3,21.67 C6.3,20.57 6.44,19.44 6.7,18.3 C6.85,17.66 7.05,17.01 7.29,16.37 C7.63,15.48 8.05,14.62 8.56,13.81 C8.72,13.55 8.89,13.29 9.07,13.04 C9.54,12.37 10.06,11.76 10.59,11.21 C10.61,11.19 10.63,11.17 10.68,11.11 C13.5,8.29 17.25,6.73 21.23,6.73 C29.46,6.73 36.16,13.43 36.16,21.66 C36.16,25.64 34.6,29.4 31.76,32.23 L31.76,32.24 Z" id="形状"></path>
                <path d="M83.04,36.6 C84.78,34.84 86.24,32.74 87.27,30.51 C88.55,27.74 89.23,24.68 89.23,21.67 C89.23,9.97 79.71,0.45 68.01,0.45 C67.28,0.45 66.55,0.49 65.84,0.56 C64.44,0.7 63.05,0.99 61.7,1.41 C60.39,1.82 59.11,2.36 57.9,3.02 C56.71,3.67 55.57,4.44 54.52,5.31 C54,5.74 53.5,6.2 53.01,6.68 C52.53,7.16 52.07,7.66 51.64,8.19 C50.77,9.24 50.01,10.38 49.36,11.57 C49.03,12.17 48.73,12.79 48.46,13.42 C47.35,16.04 46.79,18.81 46.79,21.67 C46.79,22.4 46.83,23.13 46.9,23.84 C47.04,25.24 47.33,26.63 47.75,27.98 C48.16,29.29 48.7,30.57 49.36,31.78 C50.01,32.97 50.78,34.11 51.65,35.16 C52.51,36.21 53.48,37.18 54.53,38.04 C55.58,38.91 56.72,39.68 57.91,40.33 C59.12,40.99 60.4,41.53 61.71,41.94 C63.05,42.36 64.45,42.64 65.85,42.79 C66.56,42.86 67.29,42.9 68.02,42.9 L91.12,42.9 L91.12,36.62 L83.05,36.62 L83.04,36.6 Z M78.55,32.24 C78.55,32.24 78.5,32.29 78.47,32.31 C77.93,32.84 77.31,33.35 76.65,33.83 C76.4,34.01 76.14,34.18 75.88,34.34 C75.07,34.84 74.21,35.27 73.32,35.61 C72.68,35.85 72.03,36.05 71.39,36.2 C70.25,36.46 69.11,36.6 68.02,36.6 C59.79,36.6 53.09,29.9 53.09,21.67 C53.09,20.57 53.22,19.44 53.49,18.3 C53.64,17.66 53.84,17.01 54.08,16.37 C54.42,15.48 54.84,14.62 55.35,13.81 C55.51,13.55 55.68,13.29 55.86,13.04 C56.33,12.37 56.85,11.76 57.38,11.21 C57.4,11.19 57.42,11.17 57.47,11.11 C60.29,8.29 64.04,6.73 68.02,6.73 C76.25,6.73 82.95,13.43 82.95,21.66 C82.95,25.64 81.39,29.4 78.55,32.23 L78.55,32.24 Z" id="形状"></path>
                <g transform="translate(99.570000, 0.390000)" id="路径">
                    <g>
                        <polygon points="6.67 7.56 36.45 7.56 36.45 12.95 41.65 12.95 41.65 2.93 24.73 2.93 24.73 3.55271368e-15 18.39 3.55271368e-15 18.39 2.93 1.47 2.93 1.47 12.95 6.67 12.95"></polygon>
                        <path d="M18.2,15.93 L43.16,15.93 L43.16,20.51 L15.85,20.51 L13.33,26.7 C14.38,27.2 36.19,39.2 41.44,42.31 C41.71,42.47 41.59,42.87 41.28,42.87 L31.39,42.87 C30.07,41.96 6.19,28.64 6.19,28.64 C6.19,28.64 9.15,21.93 9.78,20.51 L0,20.51 L0,15.93 L18.2,15.93 L18.2,15.93 Z"></path>
                    </g>
                    <polyline points="14 10.97 6.2 28.65 11.26 31.48 20.1 10.97"></polyline>
                    <path d="M36.45,20.52 C36.45,20.52 30.27,34.44 13.15,42.88 L2.81,42.88 C2.48,42.88 2.39,42.44 2.68,42.3 C7.34,40.17 23.19,32.25 29.93,20.52 L36.45,20.52 L36.45,20.52 Z"></path>
                </g>
            </g>
            <g id="编组">
                <path d="M89.03,23.9796632 C83.28,19.6296632 76.65,16.1396632 69.34,13.5796632 C69.26,15.6396632 69.09,18.0996632 68.78,20.8296632 C74.06,22.8296632 78.91,25.3696632 83.23,28.4096632 C82.2,36.2196632 76.23,66.9096632 45.01,83.8796632 C47.27,85.2596632 49.69,86.5796632 52.25,87.7896632 C87.7,66.0996632 90.31,28.6596632 90.41,26.9796632 L90.52,25.1096632 L89.03,23.9796632 Z" id="路径"></path>
                <path d="M17.34,29.6896632 C16.31,23.9596632 16,18.3296632 16.43,12.9096632 C23.73,9.79966318 53.58,-0.770336818 84.31,18.0496632 C84.44,15.5096632 84.5,12.8296632 84.45,10.0196632 C47.31,-10.4603368 13.05,6.66966318 11.54,7.44966318 L9.88,8.30966318 L9.67,10.1696632 C8.85,17.3096632 9.2,24.7796632 10.72,32.3696632 C12.76,31.4896632 14.99,30.5796632 17.35,29.6996632 L17.34,29.6896632 Z" id="路径"></path>
                <path d="M49.76,68.6796632 C45.24,72.3296632 39.99,76.2396632 36.55,77.8696632 C30.23,73.0996632 6.25,52.5896632 6.99,16.8896632 C4.77,17.9196632 2.45,19.0496632 -1.77635684e-15,20.3096632 C0.82,62.7896632 32.84,83.9196632 34.27,84.8396632 L35.84,85.8496632 L37.56,85.0996632 C44.16,82.2296632 54.82,73.8096632 60.66,68.6796632 L49.77,68.6796632 L49.76,68.6796632 Z" id="路径"></path>
                <path d="M60.6,49.0296632 C60.6,49.0296632 63.67,54.0196632 64.74,53.8996632 C65.24,53.8396632 65.89,51.1696632 63.88,44.6996632 C63.46,43.3396632 62.88,41.7596632 62.3,40.2496632 L60.17,34.9496632 C60.17,34.8896632 60.2,33.8396632 60.2,33.3096632 C60.2,24.2396632 55.92,15.1196632 45.39,15.1196632 C34.86,15.1196632 30.58,24.2396632 30.58,33.3096632 C30.58,33.8496632 30.61,34.8896632 30.61,34.9496632 L28.48,40.2496632 L28.48,40.2496632 C27.9,41.7696632 27.32,43.3496632 26.9,44.6996632 C24.89,51.1596632 25.54,53.8396632 26.04,53.8996632 C27.1,54.0296632 30.18,49.0296632 30.18,49.0296632 C30.18,51.9196632 31.67,55.6996632 34.89,58.4196632 C33.68,58.7896632 32.21,59.3596632 31.26,60.0596632 C30.41,60.6896632 30.51,61.3296632 30.67,61.5896632 C31.35,62.7296632 42.25,62.3196632 45.4,61.9596632 C48.55,62.3096632 59.45,62.7296632 60.13,61.5896632 C60.28,61.3296632 60.39,60.6896632 59.54,60.0596632 C58.59,59.3596632 57.11,58.7896632 55.91,58.4196632 C59.13,55.6896632 60.62,51.9196632 60.62,49.0296632 L60.6,49.0296632 Z" id="路径"></path>
            </g>
        </g>
    </g>
</svg>